<svg width="191" height="232" viewBox="0 0 191 232" fill="none" xmlns="http://www.w3.org/2000/svg">
<g filter="url(#filter0_d_177_1887)">
<mask id="mask0_177_1887" style="mask-type:alpha" maskUnits="userSpaceOnUse" x="13" y="6" width="164" height="164">
<path d="M157.948 33.3743C153.577 14.9423 135.092 3.54337 116.659 7.91404L40.3745 26.0034C21.9424 30.3743 10.5435 48.8596 14.9142 67.2917L33.0036 143.577C37.3744 162.009 55.8598 173.408 74.2919 169.037L150.577 150.948C169.009 146.577 180.408 128.091 176.037 109.659L157.948 33.3743ZM120.975 91.9866C122.848 99.8862 117.963 107.809 110.063 109.682L90.9923 114.204C83.0927 116.077 75.1701 111.192 73.2969 103.292L68.7747 84.2217C66.9015 76.3221 71.7869 68.3995 79.6865 66.5263L98.7572 62.0041C106.657 60.1309 114.579 65.0164 116.453 72.9159L120.975 91.9866Z" fill="#D9D9D9"/>
</mask>
<g mask="url(#mask0_177_1887)">
<circle cx="61.25" cy="61.25" r="61.25" transform="matrix(-0.230731 -0.973018 -0.973018 0.230731 146.645 107.816)" fill="url(#paint0_linear_177_1887)"/>
<circle cx="73.5" cy="73.5" r="73.5" transform="matrix(-0.980236 -0.197831 -0.197831 0.980236 237.213 90.418)" fill="url(#paint1_linear_177_1887)"/>
<circle cx="54.1826" cy="54.1826" r="54.1826" transform="matrix(-0.851179 -0.524876 -0.524876 0.851179 187.672 19.8895)" fill="url(#paint2_linear_177_1887)"/>
<circle cx="47.9774" cy="47.9774" r="47.9774" transform="matrix(0.524876 -0.851179 -0.851179 -0.524876 146.841 118.907)" fill="url(#paint3_linear_177_1887)"/>
<circle cx="47.7036" cy="47.7036" r="47.7036" transform="matrix(0.524876 -0.851179 -0.851179 -0.524876 162.299 138.493)" fill="url(#paint4_linear_177_1887)"/>
<circle cx="53.8923" cy="53.8923" r="53.8923" transform="matrix(0.524876 -0.851179 -0.851179 -0.524876 165.627 188.004)" fill="url(#paint5_linear_177_1887)"/>
<circle cx="108.121" cy="150.766" r="45.9375" transform="rotate(-13.3401 108.121 150.766)" fill="url(#paint6_linear_177_1887)"/>
<circle cx="47.2597" cy="47.2597" r="47.2597" transform="matrix(0.524876 -0.851179 -0.851179 -0.524876 91.0195 212.677)" fill="url(#paint7_linear_177_1887)"/>
<circle cx="45.9375" cy="45.9375" r="45.9375" transform="matrix(0.524876 -0.851179 -0.851179 -0.524876 61.9707 187.248)" fill="url(#paint8_linear_177_1887)"/>
<circle cx="45.9375" cy="45.9375" r="45.9375" transform="matrix(0.591322 0.806435 0.806435 -0.591322 -22.9561 75.2025)" fill="url(#paint9_radial_177_1887)"/>
</g>
</g>
<defs>
<filter id="filter0_d_177_1887" x="-6.32777" y="0" width="203.607" height="238.259" filterUnits="userSpaceOnUse" color-interpolation-filters="sRGB">
<feFlood flood-opacity="0" result="BackgroundImageFix"/>
<feColorMatrix in="SourceAlpha" type="matrix" values="0 0 0 0 0 0 0 0 0 0 0 0 0 0 0 0 0 0 127 0" result="hardAlpha"/>
<feOffset dy="47.98"/>
<feGaussianBlur stdDeviation="6.66389"/>
<feComposite in2="hardAlpha" operator="out"/>
<feColorMatrix type="matrix" values="0 0 0 0 0 0 0 0 0 0 0 0 0 0 0 0 0 0 0.2 0"/>
<feBlend mode="normal" in2="BackgroundImageFix" result="effect1_dropShadow_177_1887"/>
<feBlend mode="normal" in="SourceGraphic" in2="effect1_dropShadow_177_1887" result="shape"/>
</filter>
<linearGradient id="paint0_linear_177_1887" x1="53.2875" y1="99.225" x2="95.55" y2="50.225" gradientUnits="userSpaceOnUse">
<stop stop-color="#C686E8"/>
<stop offset="1" stop-color="#A4D0FA"/>
</linearGradient>
<linearGradient id="paint1_linear_177_1887" x1="122.87" y1="69.1358" x2="184.348" y2="80.6166" gradientUnits="userSpaceOnUse">
<stop stop-color="#CFD2AC"/>
<stop offset="1" stop-color="white"/>
</linearGradient>
<linearGradient id="paint2_linear_177_1887" x1="39.5194" y1="83.1125" x2="113.316" y2="70.9315" gradientUnits="userSpaceOnUse">
<stop stop-color="#7CBBFF"/>
<stop offset="0.99" stop-color="#E5FD83"/>
</linearGradient>
<linearGradient id="paint3_linear_177_1887" x1="85.0281" y1="71.9628" x2="14.1244" y2="55.7722" gradientUnits="userSpaceOnUse">
<stop stop-color="#7366FF"/>
<stop offset="1" stop-color="#A4D0FA"/>
</linearGradient>
<linearGradient id="paint4_linear_177_1887" x1="5.78058" y1="55.712" x2="84.7542" y2="73.882" gradientUnits="userSpaceOnUse">
<stop stop-color="#BEB8FE"/>
<stop offset="1" stop-color="#DE3FE4"/>
</linearGradient>
<linearGradient id="paint5_linear_177_1887" x1="114.745" y1="54.261" x2="39.066" y2="38.9585" gradientUnits="userSpaceOnUse">
<stop stop-color="#71BAFF"/>
<stop offset="0.99" stop-color="#CCC7FF"/>
</linearGradient>
<linearGradient id="paint6_linear_177_1887" x1="101.384" y1="150.154" x2="150.996" y2="167.916" gradientUnits="userSpaceOnUse">
<stop stop-color="#7DBFFF"/>
<stop offset="1" stop-color="#E9FF7E"/>
</linearGradient>
<linearGradient id="paint7_linear_177_1887" x1="82.6936" y1="18.7928" x2="23.0262" y2="54.6088" gradientUnits="userSpaceOnUse">
<stop stop-color="#7366FF"/>
<stop offset="1" stop-color="#A4D0FA"/>
</linearGradient>
<linearGradient id="paint8_linear_177_1887" x1="59.8648" y1="3.75778" x2="79.7196" y2="71.1147" gradientUnits="userSpaceOnUse">
<stop stop-color="#7CBBFF"/>
<stop offset="1" stop-color="#C686E8" stop-opacity="0.48"/>
</linearGradient>
<radialGradient id="paint9_radial_177_1887" cx="0" cy="0" r="1" gradientUnits="userSpaceOnUse" gradientTransform="translate(3.06558 83.2474) rotate(-37.9972) scale(72.9518 216.734)">
<stop stop-color="#BEB8FE" stop-opacity="0"/>
<stop offset="0.562832" stop-color="#C493EE" stop-opacity="0"/>
<stop offset="0.965" stop-color="#E755EE"/>
</radialGradient>
</defs>
</svg>
